<?xml version="1.0" encoding="UTF-8"?>
<svg width="200px" height="200px" viewBox="0 0 200 200" version="1.1" xmlns="http://www.w3.org/2000/svg" xmlns:xlink="http://www.w3.org/1999/xlink">
    <!-- Generator: Sketch 54.1 (76490) - https://sketchapp.com -->
    <title>green-bay</title>
    <desc>Created with Sketch.</desc>
    <g id="green-bay" stroke="none" stroke-width="1" fill="none" fill-rule="evenodd">
        <g id="green-bay_BGD">
            <g id="green-bay" transform="translate(0.000000, 22.000000)">
                <path d="M21.8543464,0 L0.0003000075,21.8540464 L0.0003000075,89.958749 L21.8543464,111.812795 L82.5383635,111.812795 L82.5383635,155.064877 L177.891247,155.064877 L199.979299,133.21083 L199.979299,110.39976 L188.0105,98.4294607 L199.979299,86.4621616 L199.979299,63.6480912 L177.891247,41.7940449 L49.0830271,41.7940449 L49.0830271,68.2937073 L82.5383635,68.2937073 L82.5383635,85.3131328 L33.4586365,85.3131328 L33.4586365,26.4996625 L117.441236,26.4996625 L117.441236,0 L21.8543464,0 Z M117.441236,86.6196655 L166.520963,86.6196655 L166.520963,68.2937073 L117.441236,68.2937073 L117.441236,86.6196655 Z M117.441236,128.565214 L166.520963,128.565214 L166.520963,110.237756 L117.441236,110.237756 L117.441236,128.565214 Z" id="Fill-1" fill="#FFFFFF"></path>
                <path d="M105.008625,93.3713343 L177.896947,93.3713343 L177.896947,60.2325058 L105.008625,60.2325058 L105.008625,93.3713343 Z M188.602715,68.5337133 L169.922748,49.8552464 L57.1439286,49.8552464 L57.1439286,60.2325058 L94.3013575,60.2325058 L94.3013575,93.3728343 L21.7490437,93.3728343 L21.7490437,18.439961 L109.379734,18.439961 L109.379734,8.06120153 L28.8742219,8.06120153 L11.041776,26.1411535 L11.041776,84.9696242 L29.8222456,103.751594 L94.3013575,103.751594 L94.3013575,146.303158 L170.522763,146.303158 L188.602715,128.223206 L188.602715,112.279307 L177.896947,101.864547 L177.896947,136.626416 L105.008625,136.626416 L105.008625,103.751594 L168.877222,103.751594 L188.602715,84.5796145 L188.602715,68.5337133 Z" id="Fill-2" fill="#D8DBDC"></path>
            </g>
        </g>
    </g>
</svg>