<?xml version="1.0" encoding="UTF-8"?>
<svg width="200px" height="200px" viewBox="0 0 200 200" version="1.1" xmlns="http://www.w3.org/2000/svg" xmlns:xlink="http://www.w3.org/1999/xlink">
    <!-- Generator: Sketch 54.1 (76490) - https://sketchapp.com -->
    <title>miami-oh</title>
    <desc>Created with Sketch.</desc>
    <g id="miami-oh" stroke="none" stroke-width="1" fill="none" fill-rule="evenodd">
        <g id="miami-oh_BGD" transform="translate(0.000000, 0.000000)">
            <g id="miami-oh" transform="translate(0.000000, 28.000000)">
                <g id="g10" transform="translate(99.999998, 72.393337) scale(-1, 1) rotate(-180.000000) translate(-99.999998, -72.393337) translate(0.000000, 0.393339)" fill-rule="nonzero">
                    <g id="g12">
                        <polyline id="path14" fill="#FFFFFF" points="166.601329 45.9002655 166.575996 97.5473309 194.034662 143.278663 123.25933 143.278663 97.0086642 98.1886642 70.5679982 143.391996 0 143.283996 27.5789326 97.3406642 27.4559993 45.9419322 0 0.00442708656 193.899995 0 166.601329 45.9002655"></polyline>
                        <polyline id="path16" fill="#231F20" points="165.017996 38.4109324 161.501996 38.4109324 161.501996 104.868664 165.017996 104.868664 185.175329 138.280663 126.330664 138.280663 97.0139976 88.3013311 67.7039983 138.280663 8.85626645 138.280663 29.0155993 104.868664 32.5319992 104.868664 32.5319992 38.4109324 29.0155993 38.4109324 8.85419978 4.99791988 95.5013309 4.99791988 75.3379981 38.4109324 71.8239982 38.4109324 71.8239982 59.6557318 97.0373309 16.8117329 122.05733 59.5286652 122.05733 38.4109324 118.541997 38.4109324 98.3846642 4.99791988 185.175329 4.99791988 165.017996 38.4109324"></polyline>
                        <polyline id="path18" fill="#E51636" points="168.731329 128.995997 159.777996 114.152664 152.211996 114.152664 152.211996 29.1255326 159.777996 29.1255326 168.727996 14.2869996 114.831997 14.2869996 123.783997 29.1255326 131.342663 29.1255326 131.342663 93.7466643 97.0139976 35.1601325 62.5434651 93.751331 62.5434651 29.1255326 70.1019982 29.1255326 79.0526647 14.2869996 25.3059994 14.2869996 34.2562658 29.1255326 41.821599 29.1255326 41.8236656 114.152664 34.2580658 114.152664 25.3059994 128.995997 62.3853984 128.995997 97.0139976 69.9386649 131.648663 128.995997 168.731329 128.995997"></polyline>
                        <path d="M190.397329,9.2427331 C190.402662,8.94533311 190.553329,8.36666646 191.548662,8.36666646 C192.080662,8.36666646 192.684662,8.49273312 192.684662,9.07293311 C192.684662,9.49166643 192.271995,9.60986643 191.697995,9.74606642 L191.110662,9.88199975 C190.239329,10.0859331 189.391329,10.2833331 189.391329,11.4804664 C189.391329,12.083333 189.713995,13.1528663 191.475329,13.1528663 C193.139329,13.1528663 193.595995,12.0637997 193.602662,11.394533 L192.505329,11.394533 C192.476662,11.6353997 192.387329,12.2140664 191.398662,12.2140664 C190.961995,12.2140664 190.443995,12.053933 190.443995,11.564333 C190.443995,11.1361997 190.795329,11.0513331 191.026662,10.9895997 L192.349995,10.6692664 C193.097329,10.4916664 193.771995,10.1848664 193.771995,9.20886644 C193.771995,7.57086648 192.109995,7.42893315 191.626662,7.42893315 C189.646662,7.42893315 189.299329,8.56819979 189.299329,9.2427331 L190.397329,9.2427331 Z M199.999995,7.57086648 L198.941995,7.57086648 L198.941995,12.1166664 L198.925995,12.1166664 L197.915328,7.57086648 L196.795328,7.57086648 L195.809995,12.1166664 L195.793328,12.1166664 L195.793328,7.57086648 L194.725995,7.57086648 L194.725995,13.005733 L196.391328,13.005733 L197.378662,8.72473312 L197.392662,8.72473312 L198.355995,13.005733 L199.999995,13.005733 L199.999995,7.57086648 L199.999995,7.57086648 Z" id="path20" fill="#231F20"></path>
                    </g>
                </g>
            </g>
        </g>
    </g>
</svg>