<?xml version="1.0" encoding="UTF-8"?>
<svg width="200px" height="200px" viewBox="0 0 200 200" version="1.1" xmlns="http://www.w3.org/2000/svg" xmlns:xlink="http://www.w3.org/1999/xlink">
    <!-- Generator: Sketch 54.1 (76490) - https://sketchapp.com -->
    <title>st-marys-ca</title>
    <desc>Created with Sketch.</desc>
    <g id="st-marys-ca" stroke="none" stroke-width="1" fill="none" fill-rule="evenodd">
        <g id="st-marys-ca_BGD">
            <g id="st-marys-ca" transform="translate(0.000000, 34.000000)">
                <g id="g10" transform="translate(99.953893, 66.308901) scale(-1, 1) rotate(-180.000000) translate(-99.953893, -66.308901) translate(0.000000, 0.103278)" fill-rule="nonzero">
                    <g id="g12" transform="translate(0.000000, 0.331950)">
                        <path d="M77.9540783,47.6573524 C78.0813258,47.562931 78.5656043,49.0349458 78.5656043,32.9195381 C78.5656043,14.5700688 100.248222,8.58415838 101.881049,7.7790685 C103.555922,8.57279831 124.907327,14.5700688 124.907327,33.2403864 C124.907327,42.4472096 124.956751,45.4019352 125.078835,47.5511284 C125.078835,47.5511284 112.583492,57.0412157 101.705853,63.3844152 C90.1462403,56.1903167 78.4796661,47.8753331 77.9540783,47.6573524" id="path14" fill="#E51B24"></path>
                        <path d="M98.6873189,46.7780532 C97.7582272,46.7780532 94.9440271,45.2485005 92.3489142,41.5623779 C92.3356362,41.5479934 91.6990295,40.8258173 91.6990295,38.6544942 L91.7123075,31.8591417 C92.1294583,25.226039 98.6002742,20.7414287 100.652464,20.7414287 L103.091192,20.7414287 C105.215304,20.7414287 109.277268,25.5074221 109.277268,26.6040012 L109.277268,33.2319033 C109.275424,33.2617419 109.266203,33.6144206 109.266203,33.6144206 C109.266203,34.5133048 109.266203,36.6159511 107.726692,36.6159511 L99.8819708,36.6159511 C99.8819708,36.6159511 99.998891,36.4138303 102.183861,32.8025441 L102.305945,32.6247664 L102.446839,32.7904464 C102.732685,33.1344943 103.138402,33.6007368 105.295341,33.6236414 C105.295341,33.3034939 105.291653,26.1554996 105.291653,26.1554996 C105.291653,24.8910644 104.420468,23.7883258 103.426092,23.7883258 C101.543935,23.7883258 95.9974158,25.8544945 95.7573051,32.1774081 L95.7573051,37.9666196 C95.7573051,42.43762 95.9749169,43.3940054 98.2650045,43.3940054 L103.424248,43.3940054 C103.676162,43.3940054 104.712215,43.2435213 105.13748,42.5014282 L105.272473,42.2664812 L108.155276,46.7920689 L98.6873189,46.7780532" id="path16" fill="#FFFFFF"></path>
                        <path d="M181.861867,93.7545749 C181.875313,93.7485749 181.958506,93.6925749 181.961867,93.6925749 L181.861867,93.7545749 Z M117.341445,89.0198226 C114.511754,86.5932666 110.767724,83.0782828 107.755092,80.257075 C107.755092,80.257075 105.598522,78.2373424 105.558319,78.1993526 C104.807374,77.5332392 103.287042,76.1936357 101.530288,74.650805 C99.4744097,76.5967708 96.2297809,79.6673101 96.2091262,79.6864895 C92.1582273,83.7351754 88.1360974,87.2081122 84.5750094,90.0389097 C84.5750094,94.7002282 84.5786977,104.276623 84.5786977,105.923096 C89.4734879,99.0911916 99.6171483,84.926139 99.6171483,84.926139 C99.6282133,84.9088038 101.63725,82.1440275 101.63725,82.1440275 L103.672104,84.926139 C103.672104,84.926139 118.682155,105.885843 118.707235,105.923096 C118.70908,101.833469 118.710924,95.5762078 118.712768,90.1952951 L117.341445,89.0198226 Z M83.7329624,45.0707227 C86.3313948,46.0842773 91.8037782,48.9128618 101.623603,56.7605334 C101.734253,56.6701692 101.99133,56.4639912 101.99133,56.4639912 C111.53748,48.8357756 116.85901,46.0687863 119.410232,45.0685097 C119.408019,41.3794365 119.404331,32.5115345 119.404331,32.0461772 C119.404331,21.6457717 105.272473,15.6953062 101.606636,14.3263067 C97.9275218,15.6927244 83.7344377,21.6446283 83.7344377,32.0461772 C83.7344377,32.2696165 83.7344377,34.7086759 83.7344377,37.5524195 C83.7344377,40.1976938 83.7344377,43.1959418 83.7329624,45.0707227 Z M26.2253567,91.1955717 C30.1713224,93.0865814 35.2149738,93.9422752 41.6970022,93.9422752 C59.6414923,93.9422752 71.668048,82.9514041 77.9216209,77.6501594 C78.2967246,77.3171027 84.4529255,71.8089424 91.0701683,65.6774534 C83.0163188,59.3287214 75.816319,55.1609023 72.0737649,54.7186708 C72.0719207,54.7157202 69.926416,54.461225 69.926416,54.461225 L69.926416,29.9128439 C69.9131379,29.2186622 69.9666188,24.2283443 73.7467939,18.1156289 C77.2319022,12.477676 84.746517,4.79439361 100.743935,0.198824522 C100.751311,0.196663158 101.025355,0.1187183 101.025355,0.1187183 C101.63725,-0.0553250332 102.100136,0.0829875498 102.508066,0.210206357 C118.421021,4.80147521 125.902072,12.4835774 129.373164,18.1189484 C133.128627,24.2183857 133.189854,29.2141994 133.178051,29.9187452 L133.178051,54.461225 L131.029227,54.7157202 C127.323187,55.1579516 120.278835,59.2420455 112.144949,65.6479467 C114.62056,67.8192699 117.215672,70.1528798 119.793081,72.527799 C120.695986,69.5653279 122.34836,66.1964022 125.366525,63.4393714 L125.324478,63.4777301 C131.831071,57.1994453 143.541905,49.7139683 162.37012,49.7139683 C175.768737,49.7139683 187.044348,53.3893947 196.84573,60.9490072 L199.593172,63.065743 L182.618714,73.9135067 C182.927059,69.1629305 179.969751,67.8133685 179.969751,67.8133685 L179.950941,67.8045165 C174.617976,65.0482234 168.955275,63.7624696 162.135911,63.7624696 C149.463159,63.7624696 141.616963,68.641031 136.199904,72.8918377 C134.271643,74.3789746 133.458365,76.1386795 133.332592,78.1001364 C133.332592,78.1001364 133.328904,78.1580432 133.326691,78.1893941 C133.326691,78.2200073 133.326691,80.6266462 133.326691,83.660671 L134.56966,84.5982459 C139.913689,88.608942 148.584966,93.9422752 162.135911,93.9422752 C168.957119,93.9422752 174.616132,92.6579968 179.946883,89.8998594 C179.946883,89.8998594 182.927059,88.6672177 182.618714,83.7945576 L199.593172,94.6386329 L196.84573,96.7564752 C187.044348,104.315719 175.768737,107.991145 162.37012,107.991145 C151.538217,107.991145 142.270536,105.585982 133.321527,100.440754 C133.315626,105.169569 133.30788,112.060117 133.30788,112.060117 L133.30788,112.122819 L133.298291,112.868969 C133.298291,112.868969 132.84315,124.070813 138.486672,128.701887 L142.131486,131.881601 L110.492943,131.905575 L112.530011,128.267032 C112.533699,128.260393 113.109449,127.18303 113.109449,125.676345 C113.109449,124.430057 112.71701,123.222496 111.941353,122.090177 C111.946885,122.096447 104.986996,112.038356 101.642782,107.205161 C99.0823396,110.90825 91.3405233,122.099398 91.3405233,122.099398 C90.5729807,123.222496 90.1786976,124.430057 90.1786976,125.676345 C90.1786976,127.185612 90.754078,128.262237 90.7614546,128.272565 L92.7907768,131.902993 L61.1260473,131.897461 L64.7192238,128.722542 C70.6449037,123.995202 69.9762085,112.13831 69.9762085,112.13831 L69.9762085,112.099582 L69.9762085,100.095525 C60.6343922,105.401934 51.928445,107.991145 41.4605799,107.991145 C29.3121984,107.991145 19.3604421,104.939048 11.0380818,98.6674019 C10.9197969,98.600643 10.8013644,98.5194996 10.6872473,98.4272912 C10.6947346,98.4291354 10.4317932,98.2189003 10.4224248,98.2118924 C9.69268763,97.6365121 9.0904562,97.1330543 8.54008277,96.6332848 C3.69670807,92.3035477 2.86753704,89.5358207 2.72850523,88.7911458 C2.7306666,88.7955718 2.71697919,88.7273376 2.71697919,88.7273376 L2.62577771,88.2408461 L2.77633557,87.6968166 C4.39760247,81.8478541 11.1082339,77.5837694 22.7195568,75.0218515 C28.2124474,73.8080203 34.8490171,72.9840461 41.4034107,72.7004131 L41.6261861,72.6915611 C46.3118476,72.4400166 50.6902707,72.2297815 54.9388645,71.4847377 C57.1131383,71.1055768 58.3288137,70.8175178 59.4220363,70.482617 C59.4220363,70.482617 61.9946504,69.6335621 59.5559229,67.9435668 C50.5777765,62.2133687 39.1343466,62.5010588 39.1343466,62.5010588 L39.0808658,62.5010588 L39.0292291,62.4981082 C38.6198238,62.4781912 28.9176941,62.0721054 19.5585426,68.4473934 C19.5585426,68.4473934 15.704232,70.7699383 17.0854768,75.0011968 L0,64.0778223 C0,64.0778223 2.13995384,61.977684 2.16660944,61.9503903 C3.53057437,60.5362825 15.8810139,48.4643602 38.8997685,48.4529264 L38.9377584,48.4529264 C55.7016123,48.7443049 65.1533409,53.647947 70.9362822,57.7073291 C76.8523724,61.8589196 79.7123078,66.2517273 80.1467938,67.0406622 C80.1696614,67.0731196 80.8767154,68.1283524 80.8767154,68.1283524 L80.2249865,69.4568908 C80.2290436,69.4480388 80.0800349,69.766711 80.0800349,69.766711 C79.3449496,71.37335 77.6261852,75.1306574 72.0929443,78.5807265 C62.2100492,85.2728425 43.8860293,85.7043778 43.8860293,85.7043778 C42.5925301,85.754908 37.2746879,85.9902238 32.5150015,86.5644976 C29.6567996,86.909357 27.7571593,87.181925 26.2541626,87.56293 C20.4957487,88.7955718 26.2253567,91.1955717 26.2253567,91.1955717 Z M181.971826,64.0419906 C181.971826,64.0419906 181.880159,63.9979906 181.871826,63.9929906 L181.971826,64.0419906 L181.971826,64.0419906 Z" id="path18" fill="#D0CFCF"></path>
                        <path d="M126.807189,65.01134 C133.050435,58.9890257 144.225723,51.8480393 162.37012,51.8480393 C175.277082,51.8480393 186.128165,55.3799894 195.544486,62.6390026 L195.885288,62.8990302 L184.241581,70.3332394 L184.150111,69.9098184 C183.561452,67.2224972 180.958963,65.9219901 180.930194,65.908712 C175.278926,62.9871815 169.30788,61.6291363 162.135911,61.6291363 C148.809955,61.6291363 140.570951,66.7500214 134.881693,71.2129074 C133.262514,72.4621466 131.394741,74.648592 131.198521,78.041123 L131.194833,78.1495601 L131.191145,96.0910995 L131.17381,112.046839 C131.17381,112.067863 131.16422,112.363298 131.16422,112.868969 C131.16422,115.749559 131.505391,125.426645 135.946516,129.168093 L136.575746,129.701057 L114.141814,129.760808 L114.393358,129.308249 C114.449052,129.209033 115.245364,127.752509 115.245364,125.676345 C115.245364,124.282892 114.883538,122.608388 113.701795,120.883722 C113.701795,120.883722 102.12079,104.143474 101.642782,103.451911 C101.166249,104.143474 89.5863509,120.883722 89.5863509,120.883722 C88.4031329,122.61097 88.0427825,124.282892 88.0427825,125.676345 C88.0427825,127.752509 88.8390941,129.209033 88.8944192,129.308249 L89.1455948,129.758964 L66.7124004,129.701057 L67.3408927,129.168093 C72.5598875,124.770859 72.1158119,112.187733 72.1102794,112.059748 L72.1102794,98.8809565 C74.5755629,97.3311179 78.4892558,94.7699377 82.4409385,91.7786976 C82.4409385,95.7100944 82.4483151,111.06943 82.4483151,112.566157 C83.4814179,111.124386 101.351404,86.1672639 101.351404,86.1672639 C101.353248,86.1654197 101.642782,85.7663418 101.642782,85.7663418 L101.934529,86.1654197 C101.936374,86.1672639 117.698844,108.179988 120.839462,112.566157 C120.839462,110.846286 120.852371,79.6702608 120.852371,79.6702608 C120.852371,79.6702608 120.524478,70.7570291 126.807189,65.01134" id="path20" fill="#0B335E"></path>
                        <path d="M38.8997685,50.5866285 C15.6946054,50.5976935 3.80905477,63.3287213 3.67752872,63.4574442 L3.40666843,63.7204226 L15.0295248,71.1398784 L15.1038816,70.6899014 C15.4792066,68.3865359 18.3105574,66.7105562 18.3564034,66.682156 C28.4373621,59.8166882 38.9986159,60.3585047 39.1343466,60.3658814 C46.8544018,60.3658814 53.8567068,62.3273382 59.6968173,65.3425525 C62.2535715,66.7839541 64.5801736,68.8527415 64.1991685,69.8976469 C63.0008283,73.2208373 50.7415386,74.3398783 41.7405245,74.8219437 C40.3267855,74.9001364 8.54945115,75.6175177 4.83415387,88.2662956 L4.81313035,88.3345298 L4.82825253,88.4012887 C4.84525576,88.5001361 5.33916077,90.908988 9.97075125,95.052833 C10.492577,95.5234646 11.0625723,95.9981534 11.7637618,96.5499284 L12.0365142,96.7734416 C12.0365142,96.7734416 12.1239647,96.8424134 12.1546516,96.8424134 C19.7928257,102.655599 29.336689,105.856337 41.4605799,105.856337 C52.3935441,105.856337 61.4745951,102.92411 71.1918839,96.8914683 C71.3058535,96.8265536 82.8293202,90.0466552 94.7264153,78.1506666 L99.9948338,73.1662499 C97.9467011,71.4139217 94.9668948,68.875978 92.7509428,67.0292284 C85.8972777,73.3864435 79.3810953,79.2092189 79.3220819,79.2626997 C72.8818792,84.7188545 60.4437053,96.0759773 41.6970022,96.0759773 C33.1075695,96.0759773 27.2696351,94.6024873 22.9289068,91.7978769 L22.7406172,91.6946035 C22.2853291,91.396586 21.8886855,91.106314 21.566952,90.8363278 C20.8827657,90.2362356 20.4217238,89.5940964 20.1928994,88.9338844 C20.1852646,88.8796658 20.1795108,88.826185 20.1795108,88.7701223 C20.1795108,88.4673099 20.3168275,88.1903159 20.5398612,87.8926672 C23.3254028,84.1523262 43.6403862,83.5780523 43.8554161,83.5692003 C74.4118008,81.983216 77.159242,70.8931287 78.3081585,68.5185783 L78.4206527,68.293221 L78.3195923,68.1497447 C78.3195923,68.1497447 70.3055769,51.1376658 38.8997685,50.5866285" id="path22" fill="#0B335E"></path>
                        <path d="M195.544486,95.0672175 C186.128165,102.326968 175.277082,105.856337 162.37012,105.856337 C151.511661,105.856337 142.182753,103.302902 133.28907,97.9463323 L133.28907,86.3015193 C138.944026,90.5504818 148.081877,96.0759773 162.135911,96.0759773 C169.311568,96.0759773 175.282614,94.7168257 180.926505,91.7978769 C180.958963,91.7816482 183.561452,90.4829853 184.150111,87.7941887 L184.241581,87.3737184 L195.885288,94.8042392 L195.544486,95.0672175" id="path24" fill="#0B335E"></path>
                        <path d="M131.042136,29.9020371 L131.042136,52.5654205 L130.777313,52.5952961 C125.865557,53.1828479 117.524017,58.6618704 110.51618,64.2120777 C108.237157,62.2845535 105.257351,59.761732 103.325401,58.1322254 C114.911569,48.868233 120.292482,46.8267393 121.546147,46.6246185 C121.54209,46.102719 121.538402,32.0461772 121.538402,32.0461772 C121.538402,19.3725399 104.02434,12.8892943 101.606636,12.0570951 C99.1793428,12.8892943 81.6007356,19.3704006 81.6007356,32.0461772 C81.6007356,32.0461772 81.6062681,44.6166886 81.5929901,46.6286756 C82.9038246,46.8521888 88.7265999,48.9936364 101.768923,59.6171493 C101.770767,59.6171493 101.806544,59.6425988 101.806544,59.6425988 C101.827937,59.6580898 109.08695,65.8087582 109.08695,65.8087582 C112.026922,68.3559227 115.466295,71.4249867 119.175654,74.8610401 C118.790592,76.5691083 118.728259,78.6585504 118.728259,78.6585504 L118.728259,87.3980614 C115.218808,84.387642 110.344303,79.7436587 106.997139,76.6196385 C106.997139,76.6255398 95.511662,66.4781911 93.650159,65.0083893 C86.186812,58.9779607 77.4181631,53.2005519 72.3253094,52.5952961 L72.0604869,52.5654205 L72.0604869,29.8958407 C72.0567986,29.7062233 71.982663,25.0286762 75.5607173,19.2391328 C78.8492373,13.9201472 85.9887484,6.65630228 101.331855,2.25060391 C101.344027,2.24801101 101.606636,2.17568644 101.606636,2.17568644 C101.619914,2.16689713 101.900228,2.25535817 101.900228,2.25535817 C117.167724,6.65630228 124.279942,13.9201472 127.553708,19.2391328 C131.118853,25.0286762 131.046562,29.7062233 131.042136,29.9020371" id="path26" fill="#0B335E"></path>
                    </g>
                </g>
            </g>
        </g>
    </g>
</svg>