<?xml version="1.0" standalone="no"?>
<!DOCTYPE svg PUBLIC "-//W3C//DTD SVG 20010904//EN"
 "http://www.w3.org/TR/2001/REC-SVG-20010904/DTD/svg10.dtd">
<svg version="1.0" xmlns="http://www.w3.org/2000/svg"
 width="520.000000pt" height="520.000000pt" viewBox="0 0 520.000000 520.000000"
 preserveAspectRatio="xMidYMid meet">
<metadata>
Created by potrace 1.11, written by Peter Selinger 2001-2013
</metadata>
<g transform="translate(0.000000,520.000000) scale(0.100000,-0.100000)"
fill="#000000" stroke="none">
<path d="M0 2600 l0 -2600 2600 0 2600 0 0 2600 0 2600 -2600 0 -2600 0 0
-2600z m2020 2070 c317 -23 569 -82 823 -195 l57 -25 0 -380 0 -380 -293 0
-292 0 -43 54 c-58 75 -162 150 -252 183 -63 23 -91 28 -171 28 -89 0 -99 -2
-144 -30 -67 -42 -106 -113 -113 -204 l-5 -68 89 -7 c512 -39 787 -124 1009
-312 28 -23 64 -61 80 -83 l30 -41 672 0 672 0 83 -26 c238 -75 374 -200 435
-399 25 -82 25 -328 -1 -430 -54 -220 -199 -377 -388 -420 l-52 -11 86 -12
c168 -24 318 -90 409 -181 103 -103 139 -204 139 -385 0 -210 -52 -385 -146
-498 -116 -138 -313 -229 -559 -258 -56 -6 -490 -10 -1153 -10 l-1062 0 2 373
3 372 108 19 107 20 0 146 0 147 -72 -14 c-104 -20 -650 -29 -847 -14 -172 13
-279 33 -492 91 -145 40 -240 72 -312 106 l-37 18 0 383 0 383 291 0 291 0 76
-78 c131 -133 292 -201 449 -189 101 8 149 35 185 107 25 49 51 180 36 180 -3
0 -75 9 -159 20 -710 95 -1087 355 -1175 809 -20 100 -19 321 1 434 51 291
234 525 508 652 151 70 312 111 490 124 152 12 473 12 637 1z"/>
<path d="M3250 2351 l0 -241 148 0 c81 0 167 5 192 11 114 26 164 99 164 239
0 75 -3 92 -27 132 -19 33 -40 53 -74 70 -44 21 -63 23 -225 26 l-178 3 0
-240z"/>
<path d="M3250 1494 l0 -247 163 6 c172 6 231 19 276 60 80 74 91 270 20 352
-51 58 -93 68 -286 73 l-173 4 0 -248z"/>
</g>
</svg>
